#Comment line ignore any data following # character 
#Hierarchical Translation and Rotation (.htr) file 
[Header]	
#Header keywords are followed by a single value 
FileType HTR		#Single word string
DataType HTRS		#Translation followed by rotation and scale data
FileVersion 1		#integer
NumSegments 84		#integer
NumFrames 2		#integer
DataFrameRate 30		#integer, data frame rate in this file
EulerRotationOrder ZYX
CalibrationUnits mm
RotationUnits Degrees
GlobalAxisofGravity Y
BoneLengthAxis Y
ScaleFactor 1.00
[SegmentNames&Hierarchy]
#CHILD	PARENT
MASTER GLOBAL
root MASTER
chest root
L_mid_tent01 root
R_mid_tent01 root
spine01 root
Bip01_Neck chest
L_humerus chest
R_humerus chest
weapon_bone chest
Bip01_Head Bip01_Neck
eye_left_bone Bip01_Head
eye_right_bone Bip01_Head
L_forearm L_humerus
L_front_hand L_forearm
L_weapon_bone L_forearm
L_front_hand01_01 L_front_hand
L_front_hand02_01 L_front_hand
L_front_hand03_01 L_front_hand
L_front_hand01_02 L_front_hand01_01
L_front_hand02_02 L_front_hand02_01
L_front_hand03_02 L_front_hand03_01
R_forearm R_humerus
R_front_hand R_forearm
R_weapon_bone R_forearm
R_front_hand01_01 R_front_hand
R_front_hand02_01 R_front_hand
R_front_hand03_01 R_front_hand
R_front_hand01_02 R_front_hand01_01
R_front_hand02_02 R_front_hand02_01
R_front_hand03_02 R_front_hand03_01
null_rope01_connect L_mid_tent01
Rope1_Seg01 null_rope01_connect
Rope1_Seg02 Rope1_Seg01
Rope1_Seg03 Rope1_Seg02
Rope1_Seg04 Rope1_Seg03
Rope1_Seg05 Rope1_Seg04
Rope1_Seg06 Rope1_Seg05
Rope1_Seg07 Rope1_Seg06
Rope1_Seg09 Rope1_Seg07
L_mid_hand01 Rope1_Seg09
L_mid_hand02 Rope1_Seg09
L_mid_hand03 Rope1_Seg09
null_rope02_connect R_mid_tent01
Rope2_Seg01 null_rope02_connect
Rope2_Seg02 Rope2_Seg01
Rope2_Seg03 Rope2_Seg02
Rope2_Seg04 Rope2_Seg03
Rope2_Seg05 Rope2_Seg04
Rope2_Seg06 Rope2_Seg05
Rope2_Seg07 Rope2_Seg06
Rope2_Seg09 Rope2_Seg07
R_mid_hand01 Rope2_Seg09
R_mid_hand02 Rope2_Seg09
R_mid_hand03 Rope2_Seg09
spine02 spine01
spine03 spine02
pelvis spine03
null_rope03_connect pelvis
null_rope04_connect pelvis
Rope3_Seg01 null_rope03_connect
Rope3_Seg02 Rope3_Seg01
Rope3_Seg03 Rope3_Seg02
Rope3_Seg04 Rope3_Seg03
Rope3_Seg05 Rope3_Seg04
Rope3_Seg06 Rope3_Seg05
Rope3_Seg07 Rope3_Seg06
Rope3_Seg08 Rope3_Seg07
Rope3_Seg09 Rope3_Seg08
R_rear_hand01 Rope3_Seg09
R_rear_hand02 Rope3_Seg09
R_rear_hand03 Rope3_Seg09
Rope4_Seg01 null_rope04_connect
Rope4_Seg02 Rope4_Seg01
Rope4_Seg03 Rope4_Seg02
Rope4_Seg04 Rope4_Seg03
Rope4_Seg05 Rope4_Seg04
Rope4_Seg06 Rope4_Seg05
Rope4_Seg07 Rope4_Seg06
Rope4_Seg08 Rope4_Seg07
Rope4_Seg09 Rope4_Seg08
L_rear_hand01 Rope4_Seg09
L_rear_hand02 Rope4_Seg09
L_rear_hand03 Rope4_Seg09
[BasePosition]
#SegmentName Tx, Ty, Tz, Rx, Ry, Rz, BoneLength
MASTER 0.000000 0.000000 0.000000 -90.000000 0.000000 0.000000 10.000000 
root 0.000000 0.000000 0.000000 0.000000 0.000000 0.000000 10.000000 
chest 0.000000 0.000000 0.000000 0.000000 0.000000 0.000000 10.000000 
L_mid_tent01 0.000000 0.000000 0.000000 0.000000 0.000000 0.000000 10.000000 
R_mid_tent01 0.000000 0.000000 0.000000 0.000000 0.000000 0.000000 10.000000 
spine01 0.000000 0.000000 0.000000 0.000000 0.000000 0.000000 10.000000 
Bip01_Neck 0.000000 0.000000 0.000000 0.000000 0.000000 0.000000 10.000000 
L_humerus 0.000000 0.000000 0.000000 0.000000 0.000000 0.000000 10.000000 
R_humerus 0.000000 0.000000 0.000000 0.000000 0.000000 0.000000 10.000000 
weapon_bone 0.000000 0.000000 0.000000 0.000000 0.000000 0.000000 10.000000 
Bip01_Head 0.000000 0.000000 0.000000 0.000000 0.000000 0.000000 10.000000 
eye_left_bone 0.000000 0.000000 0.000000 0.000000 0.000000 0.000000 10.000000 
eye_right_bone 0.000000 0.000000 0.000000 0.000000 0.000000 0.000000 10.000000 
L_forearm 0.000000 0.000000 0.000000 0.000000 0.000000 0.000000 10.000000 
L_front_hand 0.000000 0.000000 0.000000 0.000000 0.000000 0.000000 10.000000 
L_weapon_bone 0.000000 0.000000 0.000000 0.000000 0.000000 0.000000 10.000000 
L_front_hand01_01 0.000000 0.000000 0.000000 0.000000 0.000000 0.000000 10.000000 
L_front_hand02_01 0.000000 0.000000 0.000000 0.000000 0.000000 0.000000 10.000000 
L_front_hand03_01 0.000000 0.000000 0.000000 0.000000 0.000000 0.000000 10.000000 
L_front_hand01_02 0.000000 0.000000 0.000000 0.000000 0.000000 0.000000 10.000000 
L_front_hand02_02 0.000000 0.000000 0.000000 0.000000 0.000000 0.000000 10.000000 
L_front_hand03_02 0.000000 0.000000 0.000000 0.000000 0.000000 0.000000 10.000000 
R_forearm 0.000000 0.000000 0.000000 0.000000 0.000000 0.000000 10.000000 
R_front_hand 0.000000 0.000000 0.000000 0.000000 0.000000 0.000000 10.000000 
R_weapon_bone 0.000000 0.000000 0.000000 0.000000 0.000000 0.000000 10.000000 
R_front_hand01_01 0.000000 0.000000 0.000000 0.000000 0.000000 0.000000 10.000000 
R_front_hand02_01 0.000000 0.000000 0.000000 0.000000 0.000000 0.000000 10.000000 
R_front_hand03_01 0.000000 0.000000 0.000000 0.000000 0.000000 0.000000 10.000000 
R_front_hand01_02 0.000000 0.000000 0.000000 0.000000 0.000000 0.000000 10.000000 
R_front_hand02_02 0.000000 0.000000 0.000000 0.000000 0.000000 0.000000 10.000000 
R_front_hand03_02 0.000000 0.000000 0.000000 0.000000 0.000000 0.000000 10.000000 
null_rope01_connect 0.000000 0.000000 0.000000 0.000000 0.000000 0.000000 10.000000 
Rope1_Seg01 0.000000 0.000000 0.000000 0.000000 0.000000 0.000000 10.000000 
Rope1_Seg02 0.000000 0.000000 0.000000 0.000000 0.000000 0.000000 10.000000 
Rope1_Seg03 0.000000 0.000000 0.000000 0.000000 0.000000 0.000000 10.000000 
Rope1_Seg04 0.000000 0.000000 0.000000 0.000000 0.000000 0.000000 10.000000 
Rope1_Seg05 0.000000 0.000000 0.000000 0.000000 0.000000 0.000000 10.000000 
Rope1_Seg06 0.000000 0.000000 0.000000 0.000000 0.000000 0.000000 10.000000 
Rope1_Seg07 0.000000 0.000000 0.000000 0.000000 0.000000 0.000000 10.000000 
Rope1_Seg09 0.000000 0.000000 0.000000 0.000000 0.000000 0.000000 10.000000 
L_mid_hand01 0.000000 0.000000 0.000000 0.000000 0.000000 0.000000 10.000000 
L_mid_hand02 0.000000 0.000000 0.000000 0.000000 0.000000 0.000000 10.000000 
L_mid_hand03 0.000000 0.000000 0.000000 0.000000 0.000000 0.000000 10.000000 
null_rope02_connect 0.000000 0.000000 0.000000 0.000000 0.000000 0.000000 10.000000 
Rope2_Seg01 0.000000 0.000000 0.000000 0.000000 0.000000 0.000000 10.000000 
Rope2_Seg02 0.000000 0.000000 0.000000 0.000000 0.000000 0.000000 10.000000 
Rope2_Seg03 0.000000 0.000000 0.000000 0.000000 0.000000 0.000000 10.000000 
Rope2_Seg04 0.000000 0.000000 0.000000 0.000000 0.000000 0.000000 10.000000 
Rope2_Seg05 0.000000 0.000000 0.000000 0.000000 0.000000 0.000000 10.000000 
Rope2_Seg06 0.000000 0.000000 0.000000 0.000000 0.000000 0.000000 10.000000 
Rope2_Seg07 0.000000 0.000000 0.000000 0.000000 0.000000 0.000000 10.000000 
Rope2_Seg09 0.000000 0.000000 0.000000 0.000000 0.000000 0.000000 10.000000 
R_mid_hand01 0.000000 0.000000 0.000000 0.000000 0.000000 0.000000 10.000000 
R_mid_hand02 0.000000 0.000000 0.000000 0.000000 0.000000 0.000000 10.000000 
R_mid_hand03 0.000000 0.000000 0.000000 0.000000 0.000000 0.000000 10.000000 
spine02 0.000000 0.000000 0.000000 0.000000 0.000000 0.000000 10.000000 
spine03 0.000000 0.000000 0.000000 0.000000 0.000000 0.000000 10.000000 
pelvis 0.000000 0.000000 0.000000 0.000000 0.000000 0.000000 10.000000 
null_rope03_connect 0.000000 0.000000 0.000000 0.000000 0.000000 0.000000 10.000000 
null_rope04_connect 0.000000 0.000000 0.000000 0.000000 0.000000 0.000000 10.000000 
Rope3_Seg01 0.000000 0.000000 0.000000 0.000000 0.000000 0.000000 10.000000 
Rope3_Seg02 0.000000 0.000000 0.000000 0.000000 0.000000 0.000000 10.000000 
Rope3_Seg03 0.000000 0.000000 0.000000 0.000000 0.000000 0.000000 10.000000 
Rope3_Seg04 0.000000 0.000000 0.000000 0.000000 0.000000 0.000000 10.000000 
Rope3_Seg05 0.000000 0.000000 0.000000 0.000000 0.000000 0.000000 10.000000 
Rope3_Seg06 0.000000 0.000000 0.000000 0.000000 0.000000 0.000000 10.000000 
Rope3_Seg07 0.000000 0.000000 0.000000 0.000000 0.000000 0.000000 10.000000 
Rope3_Seg08 0.000000 0.000000 0.000000 0.000000 0.000000 0.000000 10.000000 
Rope3_Seg09 0.000000 0.000000 0.000000 0.000000 0.000000 0.000000 10.000000 
R_rear_hand01 0.000000 0.000000 0.000000 0.000000 0.000000 0.000000 10.000000 
R_rear_hand02 0.000000 0.000000 0.000000 0.000000 0.000000 0.000000 10.000000 
R_rear_hand03 0.000000 0.000000 0.000000 0.000000 0.000000 0.000000 10.000000 
Rope4_Seg01 0.000000 0.000000 0.000000 0.000000 0.000000 0.000000 10.000000 
Rope4_Seg02 0.000000 0.000000 0.000000 0.000000 0.000000 0.000000 10.000000 
Rope4_Seg03 0.000000 0.000000 0.000000 0.000000 0.000000 0.000000 10.000000 
Rope4_Seg04 0.000000 0.000000 0.000000 0.000000 0.000000 0.000000 10.000000 
Rope4_Seg05 0.000000 0.000000 0.000000 0.000000 0.000000 0.000000 10.000000 
Rope4_Seg06 0.000000 0.000000 0.000000 0.000000 0.000000 0.000000 10.000000 
Rope4_Seg07 0.000000 0.000000 0.000000 0.000000 0.000000 0.000000 10.000000 
Rope4_Seg08 0.000000 0.000000 0.000000 0.000000 0.000000 0.000000 10.000000 
Rope4_Seg09 0.000000 0.000000 0.000000 0.000000 0.000000 0.000000 10.000000 
L_rear_hand01 0.000000 0.000000 0.000000 0.000000 0.000000 0.000000 10.000000 
L_rear_hand02 0.000000 0.000000 0.000000 0.000000 0.000000 0.000000 10.000000 
L_rear_hand03 0.000000 0.000000 0.000000 0.000000 0.000000 0.000000 10.000000 
#Beginning of Data. Separated by tabs
#Fr	Tx	Ty	Tz	Rx	Ry	Rz	SF
[MASTER]
9 -0.000250 1674.555054 1210.676147 0.001660 0.001660 0.001660 2066.366699
10 -0.000282 1885.082397 1471.214722 0.001660 0.001660 0.001660 2391.235596
[root]
9 -1.807890 -75.607758 1438.652222 -94.347031 -13.750069 -91.924240 1440.638794
10 8.434523 -77.905579 1368.578613 -95.878136 -17.475906 -92.221725 1370.820190
[chest]
9 -84.512650 -34.090519 0.000000 -0.631183 0.581121 175.270538 91.129311
10 -84.512650 -34.090519 0.000000 -0.028274 0.526938 176.718750 91.129311
[L_mid_tent01]
9 27.299086 22.179193 -249.918701 0.688135 4.196842 71.327698 252.381683
10 27.299088 22.179205 -249.918701 0.144508 8.492355 70.418304 252.381683
[R_mid_tent01]
9 23.228794 24.509907 226.238495 168.732742 -18.961870 71.743965 228.744751
10 23.228794 24.509907 226.238495 169.383728 -20.768610 68.996536 228.744751
[spine01]
9 -0.361383 -0.195265 0.000000 0.001955 0.001299 22.823278 0.410763
10 -0.361383 -0.195265 0.000000 0.001956 0.001298 22.860287 0.410763
[Bip01_Neck]
9 165.484543 71.581718 0.000119 176.643677 -1.657967 43.431911 180.302734
10 165.484543 71.581718 0.000119 176.643677 -1.657967 43.431915 180.302734
[L_humerus]
9 -13.983130 -135.272980 -120.471481 154.757538 69.106636 -113.621300 181.680161
10 -13.983130 -135.272980 -120.471481 153.247284 69.974022 -115.215988 181.680161
[R_humerus]
9 -13.983309 -135.273102 125.287651 -170.673035 -63.535378 -94.348663 184.909012
10 -13.983309 -135.273102 125.287651 -170.447067 -63.784985 -94.589294 184.909012
[weapon_bone]
9 235.964890 -300.705902 0.000000 0.000000 -89.951546 -128.212341 382.234833
10 235.964890 -300.705902 0.000000 0.000000 -89.951546 -128.212341 382.234833
[Bip01_Head]
9 213.435913 185.738449 11.482169 4.968390 5.247278 -43.853752 283.170441
10 213.432617 185.747375 11.366806 4.975276 7.009676 -43.820259 283.169159
[eye_left_bone]
9 -24.626970 125.451866 -64.772606 0.000000 -90.000000 -99.840431 143.318359
10 -24.626970 125.451866 -64.772606 0.000000 -90.000000 -99.840431 143.318359
[eye_right_bone]
9 -24.626970 125.451866 64.327362 0.000000 -89.965736 80.156380 143.117676
10 -24.626970 125.451866 64.327362 0.000000 -89.965736 80.156380 143.117676
[L_forearm]
9 322.776093 0.000000 -0.000119 0.000122 -0.002344 -95.980637 322.776093
10 322.776093 0.000000 -0.000119 0.000125 -0.002344 -96.113693 322.776093
[L_front_hand]
9 241.149185 -0.042021 -3.300071 -178.295990 -1.836407 -27.424437 241.171753
10 241.149185 -0.042021 -3.300071 -178.041626 -1.835512 -27.424393 241.171753
[L_weapon_bone]
9 156.183838 0.000000 0.000000 0.000014 0.000007 0.000001 156.183838
10 156.183838 0.000000 0.000000 0.000014 0.000007 0.000001 156.183838
[L_front_hand01_01]
9 86.095154 20.947098 -0.655860 -0.364720 -0.478588 74.936234 88.609184
10 86.095154 20.947098 -0.655860 -0.351864 -0.488251 73.756912 88.609184
[L_front_hand02_01]
9 86.935165 -11.437475 24.513514 153.708527 -59.690228 -60.568150 91.046425
10 86.935165 -11.437475 24.513514 151.937775 -59.151119 -58.507736 91.046425
[L_front_hand03_01]
9 86.637497 -14.123976 -20.424902 -153.279221 57.922546 -61.955151 90.126129
10 86.637497 -14.123976 -20.424902 -151.626480 57.374607 -59.999687 90.126129
[L_front_hand01_02]
9 71.020905 -0.000179 0.000030 0.000318 -0.002326 -105.568314 71.020905
10 71.020905 -0.000179 0.000030 0.000317 -0.002326 -105.537247 71.020905
[L_front_hand02_02]
9 71.020927 -0.000119 0.000060 0.000318 -0.002326 -105.568314 71.020927
10 71.020927 -0.000119 0.000060 0.000317 -0.002326 -105.537247 71.020927
[L_front_hand03_02]
9 71.020905 -0.000060 0.000060 0.000318 -0.002326 -105.568314 71.020905
10 71.020905 -0.000060 0.000060 0.000317 -0.002326 -105.537247 71.020905
[R_forearm]
9 322.776428 -0.000060 0.000030 0.209484 0.012907 -94.514267 322.776428
10 322.776428 -0.000060 0.000030 0.209470 0.013140 -94.642143 322.776428
[R_front_hand]
9 238.847015 -0.006795 2.210259 -0.502225 -10.644185 -26.315634 238.857239
10 238.847015 -0.006795 2.210259 0.945825 -10.642573 -26.313406 238.857239
[R_weapon_bone]
9 155.664093 0.002503 -0.000030 0.003487 0.001180 -90.988930 155.664078
10 155.664093 0.002503 -0.000030 0.003487 0.001180 -90.988930 155.664078
[R_front_hand01_01]
9 87.624611 14.231146 22.918642 -153.951385 -59.756760 60.953682 91.683487
10 87.624611 14.231146 22.918642 -152.176025 -59.222912 58.891888 91.683487
[R_front_hand02_01]
9 89.356956 14.367283 -19.491137 153.963715 58.112652 62.995510 92.579636
10 89.356956 14.367283 -19.491137 152.293427 57.581059 61.021759 92.579636
[R_front_hand03_01]
9 87.286232 -22.307278 -0.143439 0.156617 -0.426811 -75.329918 90.091743
10 87.286232 -22.307278 -0.143439 0.152228 -0.428396 -74.153709 90.091743
[R_front_hand01_02]
9 71.020905 0.000060 0.000119 0.002323 -0.000334 106.381714 71.020905
10 71.020905 0.000060 0.000119 0.002323 -0.000334 106.381714 71.020905
[R_front_hand02_02]
9 71.020844 -0.000030 -0.000119 0.002323 -0.000334 106.381714 71.020836
10 71.020844 -0.000030 -0.000119 0.002323 -0.000334 106.381714 71.020836
[R_front_hand03_02]
9 71.020905 0.000000 0.000030 0.002323 -0.000334 106.381714 71.020905
10 71.020905 0.000000 0.000030 0.002323 -0.000334 106.381714 71.020905
[null_rope01_connect]
9 328.732483 0.000000 -0.000238 -141.976913 -80.610794 174.374084 328.732483
10 328.732483 0.000000 -0.000238 -143.209839 -74.627304 -179.806824 328.732483
[Rope1_Seg01]
9 0.000038 -0.000147 0.000124 -137.462219 75.692947 -124.974640 0.000196
10 0.000038 -0.000161 0.000120 -111.824776 67.622749 -104.961830 0.000204
[Rope1_Seg02]
9 139.999863 -0.000179 0.000000 -3.333535 -1.264078 8.666157 139.999863
10 139.999863 -0.000179 0.000000 -5.345934 1.235954 7.614397 139.999863
[Rope1_Seg03]
9 139.999924 0.000060 -0.000060 -3.900402 -2.706175 15.265115 139.999924
10 139.999924 0.000060 -0.000060 -7.240044 2.506316 13.421652 139.999924
[Rope1_Seg04]
9 139.999924 -0.000060 -0.000119 -2.008642 -0.666969 33.666519 139.999924
10 139.999924 -0.000060 -0.000119 -7.679195 6.111277 28.734285 139.999924
[Rope1_Seg05]
9 139.999832 0.000119 -0.000060 -4.395613 -19.318687 5.380254 139.999832
10 139.999832 0.000119 -0.000060 0.860680 -31.166878 -0.299933 139.999832
[Rope1_Seg06]
9 139.999954 0.000119 -0.000060 -5.977132 -11.973618 -7.154904 139.999954
10 139.999954 0.000119 -0.000060 -1.693943 -10.592464 -1.858169 139.999954
[Rope1_Seg07]
9 139.999985 0.000060 0.000000 -2.114317 -4.456694 -1.084343 139.999985
10 139.999985 0.000060 0.000000 -0.817129 -3.985004 0.064733 139.999985
[Rope1_Seg09]
9 121.602913 0.000119 -0.000089 -89.793175 -1.359789 0.847147 121.602913
10 121.602913 0.000119 -0.000089 -89.793175 -1.359789 0.847147 121.602913
[L_mid_hand01]
9 103.859421 1.038730 8.195221 122.214584 -62.281197 -29.682938 104.187431
10 103.859421 1.038730 8.195221 118.511871 -58.710987 -25.432119 104.187431
[L_mid_hand02]
9 105.572853 -4.139662 -10.864139 -163.055786 41.815422 -64.846161 106.211075
10 105.572853 -4.139662 -10.864139 -159.626373 40.490181 -59.638344 106.211075
[L_mid_hand03]
9 104.641464 17.579376 -3.913581 -8.059160 17.002192 68.062866 106.179977
10 104.641464 17.579376 -3.913581 -9.285491 16.381809 63.801434 106.179977
[null_rope02_connect]
9 328.732849 0.000179 -0.000119 -108.878075 72.419380 37.773994 328.732849
10 328.732849 0.000179 -0.000119 -102.791855 72.347946 37.611031 328.732849
[Rope2_Seg01]
9 0.000045 0.000124 0.000000 -157.703430 66.245483 -44.074677 0.000132
10 0.000046 0.000120 0.000000 161.661911 42.158833 -62.824478 0.000129
[Rope2_Seg02]
9 139.999741 -0.000060 -0.000119 10.142687 -0.839646 -10.718757 139.999756
10 139.999741 -0.000060 -0.000119 43.181782 1.967265 -21.852163 139.999756
[Rope2_Seg03]
9 140.000107 0.000030 0.000000 16.186417 2.026693 -15.598909 140.000107
10 140.000107 0.000030 0.000000 30.620920 -3.376643 -14.342174 140.000107
[Rope2_Seg04]
9 139.999802 0.000000 -0.000060 18.768518 -0.398187 -14.165600 139.999802
10 139.999802 0.000000 -0.000060 9.567602 -4.965232 -3.683249 139.999802
[Rope2_Seg05]
9 139.999985 -0.000060 0.000119 -21.829823 -28.452461 40.347164 139.999985
10 139.999985 -0.000060 0.000119 -7.527979 -13.975156 12.921497 139.999985
[Rope2_Seg06]
9 139.999893 -0.000030 -0.000119 -7.683612 -34.224998 37.744061 139.999893
10 139.999893 -0.000030 -0.000119 -29.006021 -44.085052 59.252171 139.999893
[Rope2_Seg07]
9 139.999893 0.000060 -0.000060 2.494656 -7.224165 6.663652 139.999893
10 139.999893 0.000060 -0.000060 1.742378 -18.555790 14.032890 139.999893
[Rope2_Seg09]
9 121.338966 0.000089 -0.000060 33.793236 -1.359788 -0.847141 121.338966
10 121.338966 0.000089 -0.000060 33.793236 -1.359788 -0.847141 121.338966
[R_mid_hand01]
9 104.680779 11.144459 -10.335981 -19.035425 44.336292 66.455589 105.778534
10 104.680779 11.144459 -10.335981 -20.898426 43.633060 63.773407 105.778534
[R_mid_hand02]
9 104.070427 2.443552 8.231699 53.394081 -65.425781 34.575901 104.424065
10 104.070427 2.443552 8.231699 55.882156 -63.749565 31.819658 104.424065
[R_mid_hand03]
9 106.028137 -11.221827 -5.996406 -176.276184 15.379540 -73.491829 106.788818
10 106.028137 -11.221827 -5.996406 -175.717163 15.237030 -71.372292 106.788818
[spine02]
9 129.756927 0.001550 0.000119 -1.005785 -3.934673 6.522598 129.756927
10 129.756927 0.001550 0.000119 -0.994354 -3.936594 6.333869 129.756927
[spine03]
9 78.614037 0.081729 -4.898994 1.051381 4.144788 4.371232 78.766571
10 78.614029 0.081722 -4.898995 1.060459 4.143548 4.485464 78.766563
[pelvis]
9 169.435242 0.051022 0.000000 0.018998 -0.190286 -10.408527 169.435257
10 169.435242 0.051022 0.000000 0.018602 -0.190325 -10.170167 169.435257
[null_rope03_connect]
9 -1.257226 -2.466202 137.391083 -146.662369 -84.601013 -132.892273 137.418976
10 -1.257226 -2.466202 137.391083 -145.696594 -82.882164 -130.383621 137.418976
[null_rope04_connect]
9 -1.259640 -2.480268 -137.844437 -146.662369 -84.601013 -132.892273 137.872513
10 -1.259640 -2.480268 -137.844437 -145.696594 -82.882164 -130.383621 137.872513
[Rope3_Seg01]
9 0.000062 -0.000147 0.000000 -128.110626 -61.100796 -90.257957 0.000160
10 0.000060 -0.000161 0.000000 -121.780441 -62.703663 -97.819046 0.000172
[Rope3_Seg02]
9 139.999924 -0.000119 0.000060 3.430027 -14.367545 -15.570463 139.999924
10 139.999924 -0.000119 0.000060 5.573116 -18.985952 -19.709805 139.999924
[Rope3_Seg03]
9 139.999924 -0.000119 0.000119 9.230995 -17.180355 -12.648396 139.999924
10 139.999924 -0.000119 0.000119 13.735518 -20.258333 -13.834955 139.999924
[Rope3_Seg04]
9 139.999924 0.000119 0.000000 20.488014 -17.434113 -3.538686 139.999924
10 139.999924 0.000119 0.000000 22.638027 -16.039860 -1.070227 139.999924
[Rope3_Seg05]
9 139.999924 -0.000238 0.000060 -6.357340 -0.833135 -7.069775 139.999924
10 139.999924 -0.000238 0.000060 0.213018 -3.410139 -5.266129 139.999924
[Rope3_Seg06]
9 139.999893 -0.000119 -0.000060 -66.777832 18.568382 -27.456791 139.999893
10 139.999893 -0.000119 -0.000060 -62.954967 2.349954 -21.519911 139.999893
[Rope3_Seg07]
9 139.999771 0.000060 -0.000119 -18.141773 36.450932 6.630486 139.999771
10 139.999771 0.000060 -0.000119 -58.771458 39.465076 -14.910995 139.999771
[Rope3_Seg08]
9 139.999985 -0.000060 0.000000 -1.321724 11.031050 5.247515 139.999985
10 139.999985 -0.000060 0.000000 -2.707151 13.461281 8.303063 139.999985
[Rope3_Seg09]
9 90.185997 -0.000179 -0.000060 89.793228 -1.359877 -0.847183 90.185997
10 90.185997 -0.000179 -0.000060 89.793228 -1.359877 -0.847183 90.185997
[R_rear_hand01]
9 103.366196 -6.073594 -10.757982 -176.027405 24.361643 -69.845345 104.101845
10 103.366196 -6.073594 -10.757982 -174.893967 24.166164 -67.090828 104.101845
[R_rear_hand02]
9 100.509819 12.039542 -7.992327 -15.526566 35.959644 67.697319 101.543350
10 100.509819 12.039542 -7.992327 -17.255272 35.248016 64.724976 101.543350
[R_rear_hand03]
9 101.539970 5.215704 5.435467 74.484848 -68.272499 18.324223 101.819031
10 101.539970 5.215704 5.435467 75.989647 -65.836792 16.686356 101.819031
[Rope4_Seg01]
9 -0.000010 -0.000085 -0.000124 65.103928 -49.072865 -116.949821 0.000150
10 -0.000010 -0.000101 -0.000120 57.029873 -47.155956 -106.677567 0.000157
[Rope4_Seg02]
9 139.999985 0.000060 0.000119 4.793674 -15.044318 3.293518 139.999985
10 139.999985 0.000060 0.000119 5.162854 -21.571352 3.751014 139.999985
[Rope4_Seg03]
9 139.999924 0.000000 -0.000238 2.403175 -8.996007 -1.199685 139.999924
10 139.999924 0.000000 -0.000238 5.136215 -11.346941 2.023541 139.999924
[Rope4_Seg04]
9 139.999985 0.000000 0.000119 6.187971 -6.808976 3.722446 139.999985
10 139.999985 0.000000 0.000119 5.959745 -7.740276 3.008673 139.999985
[Rope4_Seg05]
9 139.999802 -0.000060 -0.000119 31.190277 -19.661091 37.623310 139.999802
10 139.999802 -0.000060 -0.000119 46.542461 -36.257744 29.285109 139.999802
[Rope4_Seg06]
9 139.999924 0.000000 0.000060 16.614605 5.215911 45.716015 139.999924
10 139.999924 0.000000 0.000060 28.591970 0.112073 53.714417 139.999924
[Rope4_Seg07]
9 139.999802 0.000000 0.000000 0.836999 5.153068 13.840919 139.999802
10 139.999802 0.000000 0.000000 1.829832 5.782875 10.852128 139.999802
[Rope4_Seg08]
9 139.999924 0.000000 0.000119 -1.788065 1.767276 4.645226 139.999924
10 139.999924 0.000000 0.000119 -1.272509 2.308804 4.072999 139.999924
[Rope4_Seg09]
9 90.185791 0.000060 0.000060 -135.617828 2.228885 0.850567 90.185791
10 90.185791 0.000060 0.000060 -135.617828 2.228885 0.850567 90.185791
[L_rear_hand01]
9 101.696655 -8.392275 -7.654577 -21.754822 -32.891220 123.292305 102.329041
10 101.696655 -8.392275 -7.654577 -25.776871 -29.993465 130.987762 102.329041
[L_rear_hand02]
9 102.726799 -1.568258 5.773216 78.924988 58.957436 166.614059 102.900848
10 102.726799 -1.568258 5.773216 80.757904 51.892082 168.841858 102.900848
[L_rear_hand03]
9 104.552910 9.721220 -10.420293 -171.809479 -23.347528 -120.557556 105.519653
10 104.552910 9.721220 -10.420293 -168.841812 -22.136347 -128.226929 105.519653
